{
	"asset":{
		"generator":"Khronos glTF Blender I/O v4.5.48",
		"version":"2.0"
	},
	"scene":0,
	"scenes":[
		{
			"name":"Scene",
			"nodes":[
				0
			]
		}
	],
	"nodes":[
		{
			"mesh":0,
			"name":"bust1"
		}
	],
	"meshes":[
		{
			"name":"bust1",
			"primitives":[
				{
					"attributes":{
						"POSITION":0,
						"NORMAL":1,
						"COLOR_0":2
					},
					"indices":3
				}
			]
		}
	],
	"accessors":[
		{
			"bufferView":0,
			"componentType":5126,
			"count":558871,
			"max":[
				2.321851968765259,
				4.982686519622803,
				3.427379846572876
			],
			"min":[
				-2.4397032260894775,
				-4.999746799468994,
				-3.430337429046631
			],
			"type":"VEC3"
		},
		{
			"bufferView":1,
			"componentType":5126,
			"count":558871,
			"type":"VEC3"
		},
		{
			"bufferView":2,
			"componentType":5123,
			"count":558871,
			"normalized":true,
			"type":"VEC4"
		},
		{
			"bufferView":3,
			"componentType":5125,
			"count":838206,
			"type":"SCALAR"
		}
	],
	"bufferViews":[
		{
			"buffer":0,
			"byteLength":6706452,
			"byteOffset":0,
			"target":34962
		},
		{
			"buffer":0,
			"byteLength":6706452,
			"byteOffset":6706452,
			"target":34962
		},
		{
			"buffer":0,
			"byteLength":4470968,
			"byteOffset":13412904,
			"target":34962
		},
		{
			"buffer":0,
			"byteLength":3352824,
			"byteOffset":17883872,
			"target":34963
		}
	],
	"buffers":[
		{
			"byteLength":21236696,
			"uri":"Bust.bin"
		}
	]
}
